# xmcd
#
# Track frame offsets:
#	150
#	10677
#	25932
#	37007
#	50152
#	64002
#	77312
#	92885
#	103667
#	113662
#	128532
#	139160
#	153770
#	167247
#	182080
#	196140
#	210185
#	221012
#	236495
#	250497
#
# Disc length: 3635 seconds
#
# Revision: 0
# Processed by: cddbd v1.5.1PL2 Copyright (c) Steve Scherf et al.
# Submitted via: dBpowerAMP V4.0
#
DISCID=070e3114
DTITLE=Louis Armstrong - Greatest Hits
DYEAR=1900
DGENRE=Blues
TTITLE0=What a wonderful world
TTITLE1=Mack the knife
TTITLE2=Hello Dolly
TTITLE3=Blueberry Hill
TTITLE4=A kiss to build a dream on
TTITLE5=It takes two to tango
TTITLE6=I get ideas
TTITLE7=Mame
TTITLE8=I still get jealous
TTITLE9=When it's sleepytime down south
TTITLE10=Dummy song
TTITLE11=Frim Fram Sauce
TTITLE12=I wonder
TTITLE13=Dream a little dream of me
TTITLE14=That lucky old sun
TTITLE15=Kiss of fire
TTITLE16=C'est si bon
TTITLE17=La vie en rose
TTITLE18=Chloe
TTITLE19=Skokiaan
EXTD=Clifford Dog
EXTT0=
EXTT1=
EXTT2=
EXTT3=
EXTT4=
EXTT5=
EXTT6=
EXTT7=
EXTT8=
EXTT9=
EXTT10=
EXTT11=
EXTT12=
EXTT13=
EXTT14=
EXTT15=
EXTT16=
EXTT17=
EXTT18=
EXTT19=
PLAYORDER=
